<svg width="512px" height="512px" viewBox="0 0 512 512" version="1.1" xmlns="http://www.w3.org/2000/svg" xmlns:xlink="http://www.w3.org/1999/xlink">
    <g id="logo" stroke="none" stroke-width="1" fill="none" fill-rule="evenodd" opacity="0.05">
        <g id="512x512" fill="#6D7278">
            <path d="M256,0 C397.384896,0 512,114.615104 512,256 C512,397.384896 397.384896,512 256,512 C114.615104,512 0,397.384896 0,256 C0,114.615104 114.615104,0 256,0 Z M255,15 C122.45166,15 15,122.45166 15,255 C15,387.54834 122.45166,495 255,495 C387.54834,495 495,387.54834 495,255 C495,122.45166 387.54834,15 255,15 Z M378.675172,97.4368685 C438.268886,157.177895 439.096617,253.521679 381.158365,314.279499 C380.908355,314.566971 380.647823,314.84795 380.375107,315.12134 L265.886954,429.873277 L262.271748,433.455583 C224.353962,470.835875 219.550788,468.494188 179.039298,427.9637 L88.5782655,337.281805 C82.4739115,331.162362 82.4739115,321.240783 88.5782655,315.12134 C94.6826195,309.001896 104.579733,309.001896 110.684087,315.12134 L178.921544,383.527476 C214.593664,419.287774 232.683054,418.857546 268.141191,383.311759 L358.203598,293.030619 C356.924101,288.83552 354.629307,284.884865 351.319218,281.566593 C340.527592,270.748291 323.03091,270.748291 312.239284,281.566593 L235.462311,358.53938 C217.454589,354.518707 200.024634,347.241395 184.108401,336.707444 L181.107475,334.670081 L240.513789,275.116315 C251.305414,264.298013 251.305414,246.75808 240.513789,235.939778 C229.722163,225.121476 212.22548,225.121476 201.433854,235.939778 L142.027871,295.489443 L141.201172,294.288889 C130.040296,277.849681 122.378923,259.738626 118.216498,241.003742 L191.091488,167.954635 C201.883114,157.136333 201.883114,139.5964 191.091488,128.778098 C180.299862,117.959796 162.80318,117.959796 152.011554,128.778098 L122.22879,158.618947 C129.553526,136.250723 142.086443,115.221822 159.827541,97.4368685 C220.260645,36.8543772 318.242067,36.8543772 378.675172,97.4368685 Z M287.740855,130.740855 C270.753048,147.728662 270.753048,175.271338 287.740855,192.259145 C304.728662,209.246952 332.271338,209.246952 349.259145,192.259145 C366.246952,175.271338 366.246952,147.728662 349.259145,130.740855 C332.271338,113.753048 304.728662,113.753048 287.740855,130.740855 Z" id="形状"></path>
        </g>
    </g>
</svg>