<?xml version="1.0" encoding="UTF-8"?>
<svg width="512px" height="512px" viewBox="0 0 512 512" version="1.1" xmlns="http://www.w3.org/2000/svg" xmlns:xlink="http://www.w3.org/1999/xlink">
    <title>App Store</title>
    <g id="logo" stroke="none" stroke-width="1" fill="none" fill-rule="evenodd">
        <g id="App-Store" fill="#0091FF">
            <path d="M256,16 C388.54834,16 496,123.45166 496,256 C496,388.54834 388.54834,496 256,496 C123.45166,496 16,388.54834 16,256 C16,123.45166 123.45166,16 256,16 Z M255.53125,31 C131.526065,31 31,131.526065 31,255.53125 C31,379.536435 131.526065,480.0625 255.53125,480.0625 C379.536435,480.0625 480.0625,379.536435 480.0625,255.53125 C480.0625,131.526065 379.536435,31 255.53125,31 Z M372.07045,107.451469 C427.775237,163.595954 428.548952,254.13963 374.391597,311.239695 C374.157901,311.50986 373.914371,311.773923 373.659452,312.030855 L266.642493,419.874472 L263.263206,423.241116 C227.819834,458.371032 223.330102,456.170319 185.462285,418.079856 L100.9045,332.857211 C95.1985,327.106172 95.1985,317.781894 100.9045,312.030855 C106.6105,306.279815 115.861754,306.279815 121.567754,312.030855 L185.352215,376.31879 C218.696467,409.92624 235.605392,409.521913 268.749624,376.116061 L352.934797,291.270044 C351.738796,287.327499 349.593755,283.614682 346.499673,280.496178 C336.41228,270.329162 320.057385,270.329162 309.969992,280.496178 L238.203282,352.835033 C221.370695,349.056414 205.078174,342.217212 190.200592,332.317428 L187.395498,330.402718 L242.925113,274.434221 C253.012506,264.267204 253.012506,247.783214 242.925113,237.616197 C232.83772,227.449181 216.482825,227.449181 206.395432,237.616197 L150.866126,293.580841 L150.093375,292.452563 C139.660829,277.003032 132.499416,259.982303 128.608619,242.3753 L196.727981,173.723911 C206.815374,163.556894 206.815374,147.072904 196.727981,136.905887 C186.640588,126.738871 170.285693,126.738871 160.1983,136.905887 L132.35908,164.950251 C139.205823,143.928643 150.920875,124.165728 167.504236,107.451469 C223.993636,50.5161771 315.58105,50.5161771 372.07045,107.451469 Z M285.757052,137.632052 C269.830983,153.55812 269.830983,179.37938 285.757052,195.305448 C301.68312,211.231517 327.50438,211.231517 343.430448,195.305448 C359.356517,179.37938 359.356517,153.55812 343.430448,137.632052 C327.50438,121.705983 301.68312,121.705983 285.757052,137.632052 Z" id="leo宝蓝"></path>
        </g>
    </g>
</svg>