<svg width="75px" height="22.5px" viewBox="0 0 330 90" version="1.1" xmlns="http://www.w3.org/2000/svg" xmlns:xlink="http://www.w3.org/1999/xlink">
    <defs>
        <linearGradient x1="50%" y1="1.23259516e-30%" x2="50%" y2="100%" id="linearGradient--45oets6b3-1">
            <stop stop-color="#00BEFF" offset="0%"></stop>
            <stop stop-color="#365BFF" offset="100%"></stop>
        </linearGradient>
        <linearGradient x1="50%" y1="0%" x2="50%" y2="100%" id="linearGradient--45oets6b3-2">
            <stop stop-color="#FF8126" offset="0%"></stop>
            <stop stop-color="#FF117E" offset="100%"></stop>
        </linearGradient>
    </defs>
    <g id="logo" stroke="none" stroke-width="1" fill="none" fill-rule="evenodd">
        <g id="Small">
            <path d="M5,3.41060513e-13 C7.76142375,3.41060513e-13 10,2.26460621 10,5.05813953 L10,56.5181807 C10,72.5163076 14.0227465,76.7171706 29.2805461,76.8788059 L61,76.8837209 C63.7614237,76.8837209 66,79.1483271 66,81.9418605 C66,84.7353938 63.7614237,87 61,87 L19.719625,86.997218 C0.8303,86.946586 0.03496,85.9744521 0.001472,67.3094802 L-1.42108547e-14,5.05813953 C-1.42108547e-14,2.26460621 2.23857625,3.41060513e-13 5,3.41060513e-13 Z M137,3.41060513e-13 C139.761424,3.41060513e-13 142,2.23857625 142,5 C142,7.76142375 139.761424,10 137,10 L106.131454,10 C90.1558434,10 86.0811037,14.1052623 86.0012065,29.7511387 L86.001,40.182 L130.18272,40.1827202 C132.944144,40.1827202 135.18272,42.4212964 135.18272,45.1827202 C135.18272,47.9441439 132.944144,50.1827202 130.18272,50.1827202 L86,50.182 L86,56.8685465 C86,72.8441566 90.1052623,76.9188963 105.751139,76.9987935 L137,77 C139.761424,77 142,79.2385763 142,82 C142,84.7614237 139.761424,87 137,87 L96.991479,87 C78.4060105,86.9824014 76.2757732,86.4785992 76.0316087,71.5522829 C76.0102078,71.3705589 76,71.1864715 76,71 L76.001408,20.348928 C76.033792,0.847872 76.811008,0.035328 95.464192,0.001472 L137,3.41060513e-13 Z M185.18272,0.182720164 C203.408117,0.182720164 218.18272,19.8821912 218.18272,44.1827202 C218.18272,68.4832492 203.408117,88.1827202 185.18272,88.1827202 C166.957323,88.1827202 152.18272,68.4832492 152.18272,44.1827202 C152.18272,19.8821912 166.957323,0.182720164 185.18272,0.182720164 Z M185.18272,10.1827202 C172.480171,10.1827202 162.18272,25.4050387 162.18272,44.1827202 C162.18272,62.9604017 172.480171,78.1827202 185.18272,78.1827202 C197.885269,78.1827202 208.18272,62.9604017 208.18272,44.1827202 C208.18272,25.4050387 197.885269,10.1827202 185.18272,10.1827202 Z" id="形状" fill="url(#linearGradient--45oets6b3-1)"></path>
            <path d="M271.18272,0.182720164 C289.408117,0.182720164 304.18272,19.8821912 304.18272,44.1827202 C304.18272,54.2120055 301.666061,63.4575613 297.428821,70.8579509 L307.536274,80.9652057 C309.488895,82.9178272 309.488895,86.0836521 307.536274,88.0362736 C305.583652,89.988895 302.417827,89.988895 300.465206,88.0362736 L291.395316,78.9659449 C285.811014,84.7433014 278.798112,88.1827202 271.18272,88.1827202 C252.957323,88.1827202 238.18272,68.4832492 238.18272,44.1827202 C238.18272,19.8821912 252.957323,0.182720164 271.18272,0.182720164 Z M271.18272,10.1827202 C258.480171,10.1827202 248.18272,25.4050387 248.18272,44.1827202 C248.18272,62.9604017 258.480171,78.1827202 271.18272,78.1827202 C276.110799,78.1827202 280.676881,75.8915655 284.420106,71.9905241 L282.787536,70.358604 C280.834915,68.4059826 280.834915,65.2401577 282.787536,63.2875362 C284.740158,61.3349148 287.905983,61.3349148 289.858604,63.2875362 L290.099123,63.5284764 C292.67398,58.0370156 294.18272,51.3703264 294.18272,44.1827202 C294.18272,25.4050387 283.885269,10.1827202 271.18272,10.1827202 Z M324.18272,2.18272016 C326.944144,2.18272016 329.18272,4.42129641 329.18272,7.18272016 L329.18272,84.1827202 C329.18272,86.9441439 326.944144,89.1827202 324.18272,89.1827202 C321.421296,89.1827202 319.18272,86.9441439 319.18272,84.1827202 L319.18272,7.18272016 C319.18272,4.42129641 321.421296,2.18272016 324.18272,2.18272016 Z" id="形状结合" fill="url(#linearGradient--45oets6b3-2)"></path>
        </g>
    </g>
</svg>